<svg width="40" height="29" viewBox="0 0 40 29" fill="none" xmlns="http://www.w3.org/2000/svg">
<path d="M13.5607 1.43934C12.9749 0.853553 12.0251 0.853553 11.4393 1.43934L1.8934 10.9853C1.30761 11.5711 1.30761 12.5208 1.8934 13.1066C2.47918 13.6924 3.42893 13.6924 4.01472 13.1066L12.5 4.62132L20.9853 13.1066C21.5711 13.6924 22.5208 13.6924 23.1066 13.1066C23.6924 12.5208 23.6924 11.5711 23.1066 10.9853L13.5607 1.43934ZM14 27.5L14 2.5H11L11 27.5H14Z" fill="white"/>
<path d="M14 27.5H11V6L3 14L1 12L12.5 1L24 12L22 14L14 6V27.5Z" stroke="#2A2A2A"/>
<path d="M26.4393 27.0607C27.0251 27.6464 27.9749 27.6464 28.5607 27.0607L38.1066 17.5147C38.6924 16.9289 38.6924 15.9792 38.1066 15.3934C37.5208 14.8076 36.5711 14.8076 35.9853 15.3934L27.5 23.8787L19.0147 15.3934C18.4289 14.8076 17.4792 14.8076 16.8934 15.3934C16.3076 15.9792 16.3076 16.9289 16.8934 17.5147L26.4393 27.0607ZM26 1L26 26H29L29 1L26 1Z" fill="white"/>
<path d="M26 1H29L29 22.5L37 14.5L39 16.5L27.5 27.5L16 16.5L18 14.5L26 22.5L26 1Z" stroke="#2A2A2A"/>
</svg>
