<svg width="152" height="33" viewBox="0 0 152 33" fill="none" xmlns="http://www.w3.org/2000/svg">
<path d="M22.28 26.664C22.28 27.816 21.992 28.872 21.416 29.832C20.84 30.792 20.072 31.56 19.112 32.136C18.152 32.712 17.096 33 15.944 33H3.128C2.52 33 1.992 32.792 1.544 32.376C1.128 31.928 0.92 31.4 0.92 30.792V2.76C0.92 2.12 1.128 1.592 1.544 1.176C1.992 0.759997 2.52 0.551997 3.128 0.551997H15.272C16.456 0.551997 17.512 0.839997 18.44 1.416C19.4 1.992 20.168 2.76 20.744 3.72C21.32 4.68 21.608 5.752 21.608 6.936V12.648C21.608 13.512 21.448 14.312 21.128 15.048C20.968 15.4 21 15.752 21.224 16.104C21.928 17.16 22.28 18.344 22.28 19.656V26.664ZM15.944 12.648V6.936C15.944 6.744 15.864 6.584 15.704 6.456C15.576 6.328 15.432 6.264 15.272 6.264H7.304C6.888 6.264 6.68 6.472 6.68 6.888V12.648C6.68 13.064 6.888 13.272 7.304 13.272H15.272C15.432 13.272 15.576 13.208 15.704 13.08C15.864 12.952 15.944 12.808 15.944 12.648ZM16.568 26.664V19.656C16.568 19.208 16.36 18.984 15.944 18.984H7.304C6.888 18.984 6.68 19.192 6.68 19.608V26.712C6.68 27.128 6.888 27.336 7.304 27.336H15.944C16.104 27.336 16.248 27.272 16.376 27.144C16.504 26.984 16.568 26.824 16.568 26.664ZM47.0176 30.792C47.0176 31.4 46.7936 31.928 46.3456 32.376C45.9296 32.792 45.4336 33 44.8576 33H28.3456C27.7696 33 27.2576 32.792 26.8096 32.376C26.3936 31.928 26.1856 31.4 26.1856 30.792V2.76C26.1856 2.12 26.3936 1.592 26.8096 1.176C27.2576 0.759997 27.7696 0.551997 28.3456 0.551997H44.8576C45.4336 0.551997 45.9296 0.759997 46.3456 1.176C46.7936 1.592 47.0176 2.12 47.0176 2.76V4.056C47.0176 4.664 46.7936 5.192 46.3456 5.64C45.9296 6.056 45.4336 6.264 44.8576 6.264H32.4736C32.0896 6.264 31.8976 6.472 31.8976 6.888V13.272C31.8976 13.72 32.0896 13.944 32.4736 13.944H43.1296C43.7696 13.944 44.2976 14.152 44.7136 14.568C45.1296 14.984 45.3376 15.496 45.3376 16.104V17.448C45.3376 18.056 45.1296 18.584 44.7136 19.032C44.2976 19.448 43.7696 19.656 43.1296 19.656H32.4736C32.0896 19.656 31.8976 19.848 31.8976 20.232V26.712C31.8976 27.128 32.0896 27.336 32.4736 27.336H44.8576C45.4336 27.336 45.9296 27.544 46.3456 27.96C46.7936 28.376 47.0176 28.904 47.0176 29.544V30.792ZM71.6739 30.792C71.6739 31.4 71.4499 31.928 71.0019 32.376C70.5859 32.792 70.0899 33 69.5139 33H53.0019C52.4259 33 51.9139 32.792 51.4659 32.376C51.0499 31.928 50.8419 31.4 50.8419 30.792V2.76C50.8419 2.12 51.0499 1.592 51.4659 1.176C51.9139 0.759997 52.4259 0.551997 53.0019 0.551997H54.3459C54.9539 0.551997 55.4659 0.759997 55.8819 1.176C56.3299 1.592 56.5539 2.12 56.5539 2.76V26.712C56.5539 27.128 56.7459 27.336 57.1299 27.336H69.5139C70.0899 27.336 70.5859 27.544 71.0019 27.96C71.4499 28.376 71.6739 28.904 71.6739 29.544V30.792ZM96.1381 1.848C96.2981 2.232 96.3461 2.648 96.2821 3.096C96.2501 3.512 96.0741 3.896 95.7541 4.248L84.7621 16.344C84.4741 16.632 84.4741 16.936 84.7621 17.256L95.7541 29.304C96.0741 29.624 96.2501 30.008 96.2821 30.456C96.3461 30.872 96.2981 31.272 96.1381 31.656C95.9781 32.072 95.7061 32.408 95.3221 32.664C94.9701 32.888 94.5861 33 94.1701 33H92.3461C91.7701 33 91.2421 32.76 90.7621 32.28L81.6901 22.296C81.6261 22.2 81.5301 22.184 81.4021 22.248C81.3061 22.28 81.2581 22.344 81.2581 22.44V30.792C81.2581 31.4 81.0341 31.928 80.5861 32.376C80.1701 32.792 79.6581 33 79.0501 33H77.7061C77.0981 33 76.5861 32.792 76.1701 32.376C75.7541 31.928 75.5461 31.4 75.5461 30.792V2.76C75.5461 2.12 75.7541 1.592 76.1701 1.176C76.5861 0.759997 77.0981 0.551997 77.7061 0.551997H79.0501C79.6581 0.551997 80.1701 0.759997 80.5861 1.176C81.0341 1.592 81.2581 2.12 81.2581 2.76V11.064C81.2581 11.192 81.3061 11.272 81.4021 11.304C81.5301 11.336 81.6261 11.32 81.6901 11.256L90.7621 1.272C91.2421 0.791998 91.7861 0.551997 92.3941 0.551997H94.1701C95.0981 0.551997 95.7541 0.983997 96.1381 1.848ZM122.185 26.664C122.185 27.816 121.897 28.872 121.321 29.832C120.745 30.792 119.977 31.56 119.017 32.136C118.057 32.712 117.001 33 115.849 33H106.633C105.481 33 104.409 32.712 103.417 32.136C102.457 31.56 101.689 30.792 101.113 29.832C100.537 28.872 100.249 27.816 100.249 26.664V6.936C100.249 5.752 100.537 4.68 101.113 3.72C101.689 2.76 102.457 1.992 103.417 1.416C104.409 0.839997 105.481 0.551997 106.633 0.551997H115.849C117.001 0.551997 118.057 0.839997 119.017 1.416C119.977 1.992 120.745 2.76 121.321 3.72C121.897 4.68 122.185 5.752 122.185 6.936V26.664ZM116.473 26.664V6.936C116.473 6.488 116.265 6.264 115.849 6.264H106.633C106.473 6.264 106.313 6.328 106.153 6.456C106.025 6.584 105.961 6.744 105.961 6.936V26.664C105.961 26.824 106.025 26.984 106.153 27.144C106.313 27.272 106.473 27.336 106.633 27.336H115.849C116.009 27.336 116.153 27.272 116.281 27.144C116.409 26.984 116.473 26.824 116.473 26.664ZM150.892 3.432L141.58 31.512C141.452 31.928 141.18 32.28 140.764 32.568C140.38 32.856 139.964 33 139.516 33H137.548C137.1 33 136.684 32.856 136.3 32.568C135.948 32.28 135.692 31.928 135.532 31.512L126.22 3.432C125.964 2.728 126.06 2.072 126.508 1.464C126.924 0.855998 127.516 0.551997 128.284 0.551997H129.676C130.732 0.551997 131.436 1.048 131.788 2.04L138.268 21.816C138.46 22.04 138.636 22.04 138.796 21.816C139.468 19.736 140.156 17.608 140.86 15.432C141.596 13.224 142.284 11.16 142.924 9.24C143.564 7.288 144.092 5.672 144.508 4.392L145.276 2.04C145.436 1.592 145.708 1.24 146.092 0.983997C146.508 0.695997 146.94 0.551997 147.388 0.551997H148.78C149.548 0.551997 150.14 0.855998 150.556 1.464C151.004 2.04 151.116 2.696 150.892 3.432Z" fill="white"/>
</svg>
